<?xml version="1.0" standalone="no"?>
<!DOCTYPE svg PUBLIC "-//W3C//DTD SVG 20010904//EN"
 "http://www.w3.org/TR/2001/REC-SVG-20010904/DTD/svg10.dtd">
<svg version="1.0" xmlns="http://www.w3.org/2000/svg"
 width="205.000000pt" height="205.000000pt" viewBox="0 0 205.000000 205.000000"
 preserveAspectRatio="xMidYMid meet">
<metadata>
Created by potrace 1.14, written by Peter Selinger 2001-2017
</metadata>
<g transform="translate(0.000000,205.000000) scale(0.100000,-0.100000)"
fill="#000000" stroke="none">
<path d="M780 1864 c-235 -62 -414 -244 -485 -493 -17 -62 -21 -275 -5 -330 8
-28 6 -36 -9 -50 -10 -9 -38 -52 -62 -96 -23 -44 -56 -106 -73 -137 -22 -42
-37 -58 -52 -58 -61 0 -86 -89 -38 -137 25 -25 52 -27 95 -9 11 5 25 -7 48
-39 31 -43 67 -80 135 -138 26 -23 169 -99 221 -118 11 -4 52 -15 90 -23 234
-51 447 -31 710 69 299 114 541 382 573 634 7 53 8 54 47 65 100 29 73 171
-30 152 -30 -6 -44 0 -107 41 -40 26 -75 50 -78 53 -16 16 -122 80 -132 80 -7
0 -22 28 -32 63 -21 66 -62 153 -83 175 -7 7 -13 18 -13 24 0 5 -37 47 -83 91
-60 60 -104 93 -160 122 -43 21 -81 43 -83 47 -3 5 -9 6 -12 4 -4 -2 -32 2
-62 10 -70 18 -248 17 -320 -2z"/>
</g>
</svg>
